# xmcd
#
# Track frame offsets: 
#        150
#        12585
#        25312
#        37859
#        47958
#        58551
#        71202
#        85592
#        98056
#        109654
#        120444
#        130339
#        141212
#        154405
#        166247
#        179399
#        190127
#        201199
#        216028
#        229361
#        240064
#        253888
#        266794
#        278384
#        290951
#        304808
#        316720
#        329431
#        342199
#
# Disc length: 4746 seconds
#
# Revision: 4
# Processed by: cddbd v1.5.2PL0 Copyright (c) Steve Scherf et al.
# Submitted via: ExactAudioCopyFreeDBPlugin 1.0
#
DISCID=a812881d
DTITLE=Various Artist - Jumping the Shuffle Blues:  Jamaican Sound Sy
DTITLE=stem Classics, 1946-1960
DYEAR=2011
DGENRE=Rhythm and Blues
TTITLE0=Wynonie Harris - Bloodshot Eyes
TTITLE1=Roy Brown - Train Time Blues
TTITLE2=Zuzu Bollin - Why Don't You Eat Where You Slept Last Night
TTITLE3=Lester Williams - I Can't Lose with the Stuff I Use
TTITLE4=Big Jay McNeely and His Orchestra - Big Jay Shuffle
TTITLE5=Lowell Fulson - Guitar Shuffle
TTITLE6=Rosco Gordon - No More Doggin'
TTITLE7=Little Willie Littlefield - KC Lovin' (aka "Kansas City")
TTITLE8=Lloyd Price - Lawdy Miss Clawdy
TTITLE9=Shirley and Lee - I'm Gone
TTITLE10=Li'l Son Jackson - Get High Everybody
TTITLE11=Jimmie Lee - Blue and Lonesome
TTITLE12=Lynn Hope - Hope, Skip, and Jump
TTITLE13=Paul Bascomb - Mumbles Blues
TTITLE14=Rosco Gordon - Too Many Women
TTITLE15=Lester Williams - Brand New Baby
TTITLE16=Dave Bartholomew - Country Gal
TTITLE17=Hal Paige - Drive it Home
TTITLE18=Amos Milburn - One Scotch, One Bourbon, One Beer
TTITLE19=Smiley Lewis - Little Fernandez
TTITLE20=Melvin Daniels - No More Crying on My Pillow
TTITLE21=Sonny Knight - But Officer
TTITLE22=Jimmy Liggins - Drunk
TTITLE23=Floyd Dixon - Hey Bartender
TTITLE24=B.B. King - You Upset Me Baby
TTITLE25=Mike Gordon - Why Don't You Do Right
TTITLE26=Earl Curry - One Whole Year Baby
TTITLE27=Eddie Chamblee - La! La! La! Lady
TTITLE28=Champion Jack Dupree - Drunk Again
EXTD=
EXTT0=
EXTT1=
EXTT2=
EXTT3=
EXTT4=
EXTT5=
EXTT6=
EXTT7=
EXTT8=
EXTT9=
EXTT10=
EXTT11=
EXTT12=
EXTT13=
EXTT14=
EXTT15=
EXTT16=
EXTT17=
EXTT18=
EXTT19=
EXTT20=
EXTT21=
EXTT22=
EXTT23=
EXTT24=
EXTT25=
EXTT26=
EXTT27=
EXTT28=
PLAYORDER=
